HIERARCHY
ROOT hip
{
	OFFSET 0.000000 0.000000 0.000000 
	CHANNELS 6 Xposition Yposition Zposition Zrotation Xrotation Yrotation
	JOINT abdomen
	{
		OFFSET 0.000000 3.402643 0.000000 
		CHANNELS 3 Zrotation Xrotation Yrotation
		JOINT chest
		{
			OFFSET 0.000000 8.438565 -0.680529 
			CHANNELS 3 Zrotation Xrotation Yrotation
			JOINT neck
			{
				OFFSET 0.000000 10.207942 -0.272212 
				CHANNELS 3 Zrotation Xrotation Yrotation
				JOINT head
				{
					OFFSET 0.000000 3.130431 0.000000 
					CHANNELS 3 Zrotation Xrotation Yrotation
					End Site
					{
						OFFSET 0.000000 3.130435 0.000000 
					}
				}
			}
			JOINT lCollar
			{
				OFFSET 3.470700 6.669187 -0.816635 
				CHANNELS 3 Zrotation Xrotation Yrotation
				JOINT lShldr
				{
					OFFSET 3.198488 0.000000 0.000000 
					CHANNELS 3 Zrotation Xrotation Yrotation
					JOINT lForeArm
					{
						OFFSET 10.139888 0.000000 0.000000 
						CHANNELS 3 Zrotation Xrotation Yrotation
						JOINT lHand
						{
							OFFSET 8.370511 0.000000 0.000000 
							CHANNELS 3 Zrotation Xrotation Yrotation
							End Site
							{
								OFFSET 4.083176 0.000000 0.000000 
							}
						}
					}
				}
			}
			JOINT rCollar
			{
				OFFSET -3.470700 6.669187 -0.816635 
				CHANNELS 3 Zrotation Xrotation Yrotation
				JOINT rShldr
				{
					OFFSET -3.198488 0.000000 0.000000 
					CHANNELS 3 Zrotation Xrotation Yrotation
					JOINT rForeArm
					{
						OFFSET -10.139888 0.000000 0.000000 
						CHANNELS 3 Zrotation Xrotation Yrotation
						JOINT rHand
						{
							OFFSET -8.370511 0.000000 0.000000 
							CHANNELS 3 Zrotation Xrotation Yrotation
							End Site
							{
								OFFSET -4.083176 0.000000 0.000000 
							}
						}
					}
				}
			}
		}
	}
	JOINT lThigh
	{
		OFFSET 5.308129 -1.633274 1.361059 
		CHANNELS 3 Zrotation Xrotation Yrotation
		JOINT lShin
		{
			OFFSET -2.041588 -20.007561 0.000000 
			CHANNELS 3 Zrotation Xrotation Yrotation
			JOINT lFoot
			{
				OFFSET 0.000000 -19.190928 -1.224953 
				CHANNELS 3 Zrotation Xrotation Yrotation
				End Site
				{
					OFFSET 0.000000 -2.449906 4.627600 
				}
			}
		}
	}
	JOINT rThigh
	{
		OFFSET -5.308129 -1.633274 1.361059 
		CHANNELS 3 Zrotation Xrotation Yrotation
		JOINT rShin
		{
			OFFSET 2.041588 -20.007561 0.000000 
			CHANNELS 3 Zrotation Xrotation Yrotation
			JOINT rFoot
			{
				OFFSET 0.000000 -19.190928 -1.224953 
				CHANNELS 3 Zrotation Xrotation Yrotation
				End Site
				{
					OFFSET 0.000000 -2.449906 4.627600 
				}
			}
		}
	}
}
MOTION
Frames: 13
Frame Time: 0.016667
4.581560 44.934677 116.429001 -0.449219 0.712891 24.121000 2.763280 14.195900 -2.596690 -2.124440 -21.987200 -3.938250 -4.270560 33.425400 2.139870 2.482220 19.376900 0.420769 -1.998780 -0.069785 1.998780 -88.601501 6.768620 -4.479270 -0.614247 -2.366100 -28.058399 -0.098130 12.725000 0.100812 1.998780 -0.069785 -1.998780 84.319702 -7.686300 -3.691210 0.221399 1.041900 32.614300 0.095621 26.461000 -0.055632 2.640170 0.854404 -23.981001 4.334400 27.983601 -0.221999 -3.263430 -9.126750 -8.381220 9.646100 -33.308998 20.206699 -2.135960 56.054001 -2.105650 3.030510 -18.694401 12.084400 
4.614760 44.914577 116.871002 -0.449219 0.869140 24.414000 2.753260 14.196100 -2.573620 -2.156030 -21.977900 -3.916990 -4.342330 33.550400 2.178450 2.472300 19.435400 0.431241 -1.998780 -0.069785 1.998780 -88.513603 6.709930 -4.518020 -0.609154 -2.368140 -27.902100 -0.098109 12.862000 0.100527 1.998780 -0.069785 -1.998780 84.431503 -7.608750 -3.621930 0.221399 1.041900 32.614300 0.095673 26.412001 -0.055754 2.676110 0.978892 -23.845200 4.354650 28.328199 -0.216436 -3.205810 -9.050610 -8.238910 9.350460 -33.644402 20.019600 -2.142280 56.083099 -2.100040 2.963250 -18.559000 12.034400 
4.650510 44.893280 117.290001 -0.468750 0.966797 24.628799 2.713730 14.226100 -2.540090 -2.152860 -21.920700 -3.852050 -4.456740 33.595901 2.238180 2.432380 19.445299 0.443922 -1.998780 -0.069785 1.998780 -88.371498 6.797060 -4.587300 -0.607879 -2.368650 -27.863001 -0.098103 12.891000 0.100466 1.998780 -0.069785 -1.998780 84.531898 -7.482670 -3.512950 0.221072 1.041780 32.594799 0.095704 26.382999 -0.055828 2.710170 1.065240 -23.489300 4.352460 28.765200 -0.202291 -3.143080 -8.883520 -8.075620 9.129960 -33.923302 19.847000 -2.149540 56.092300 -2.085740 2.948900 -18.389700 12.151800 
4.693130 44.870777 117.683998 -0.498047 1.015620 24.746000 2.674350 14.265800 -2.487080 -2.109090 -21.834900 -3.755240 -4.606270 33.610401 2.323150 2.392440 19.435499 0.466373 -1.998780 -0.069785 1.998780 -88.238899 6.932460 -4.706480 -0.608516 -2.368390 -27.882500 -0.098105 12.871000 0.100506 1.998780 -0.069785 -1.998780 84.556396 -7.249540 -3.353830 0.219766 1.041290 32.516701 0.095714 26.372999 -0.055852 2.687270 1.108470 -22.934500 4.383350 29.334600 -0.237145 -3.058540 -8.706580 -7.885280 8.912910 -34.055099 19.664600 -2.150430 56.034100 -2.099270 2.987030 -18.221600 12.409600 
4.744500 44.848179 118.058998 -0.537109 1.044920 24.785101 2.615060 14.315500 -2.417270 -2.044460 -21.740000 -3.626770 -4.755940 33.662899 2.429880 2.362500 19.445299 0.488092 -1.998780 -0.069785 1.998780 -88.132797 7.077410 -4.835930 -0.610110 -2.367760 -27.931400 -0.098111 12.842000 0.100567 1.998780 -0.069785 -1.998780 84.531898 -6.928730 -3.146000 0.217478 1.040440 32.380100 0.095662 26.422001 -0.055730 2.714370 1.231480 -22.268101 4.397740 29.837799 -0.243565 -2.968330 -8.592510 -7.766710 8.695340 -34.066601 19.406300 -2.160450 55.945599 -2.090250 3.079190 -18.044001 12.814200 
4.805440 44.827778 118.413002 -0.576172 1.093750 24.755800 2.525370 14.346200 -2.317230 -1.984760 -21.655399 -3.456720 -4.864230 33.786301 2.496210 2.332590 19.494200 0.509797 -1.998780 -0.069785 1.998780 -88.038902 7.232280 -4.935360 -0.613292 -2.366480 -28.029100 -0.098117 12.803000 0.100649 1.998780 -0.069785 -1.998780 84.485603 -6.607710 -2.938550 0.214531 1.039360 32.204399 0.095571 26.510000 -0.055510 2.722690 1.392560 -21.527901 4.359460 30.268900 -0.228894 -2.924420 -8.634140 -7.593240 8.501290 -34.100300 19.134399 -2.168160 55.915699 -2.078600 3.191970 -17.859501 13.282200 
4.874170 44.811180 118.745003 -0.625000 1.201170 24.687401 2.385240 14.358000 -2.189670 -1.931450 -21.600300 -3.276680 -4.919140 33.931801 2.518010 2.322670 19.562500 0.510499 -1.998780 -0.069785 1.998780 -87.968300 7.368480 -4.936870 -0.619019 -2.364170 -28.205000 -0.098123 12.764000 0.100730 1.998780 -0.069785 -1.998780 84.443100 -6.315700 -2.750700 0.211254 1.038170 32.009201 0.095414 26.656000 -0.055139 2.620720 1.428950 -20.699499 4.355970 30.744499 -0.227451 -2.921850 -8.803500 -7.407540 8.343010 -34.134800 18.886299 -2.163170 55.915798 -2.081600 3.368340 -17.731800 13.845700 
4.948030 44.801178 119.056999 -0.732422 1.367190 24.599501 2.254970 14.359800 -2.065610 -1.855250 -21.584101 -3.087360 -4.945970 34.049801 2.509650 2.312730 19.611300 0.501457 -1.998780 -0.069785 1.998780 -87.942101 7.466570 -4.849210 -0.627911 -2.360550 -28.478600 -0.098137 12.676000 0.100913 1.998780 -0.069785 -1.998780 84.366501 -6.042990 -2.582350 0.208629 1.037220 31.853001 0.095269 26.792999 -0.054795 2.490300 1.405510 -19.816799 4.338160 31.222099 -0.212353 -2.881540 -9.111360 -7.166280 8.274320 -34.159698 18.708200 -2.148490 55.916599 -2.099070 3.562920 -17.702801 14.404600 
5.021920 44.800079 119.352997 -0.908203 1.582030 24.540899 2.164910 14.370800 -1.965460 -1.751190 -21.586800 -2.929930 -4.977440 34.060699 2.491460 2.302740 19.611401 0.482654 -1.998780 -0.069785 1.998780 -87.991402 7.487470 -4.682010 -0.640269 -2.355420 -28.859800 -0.098162 12.510000 0.101259 1.998780 -0.069785 -1.998780 84.259300 -5.828760 -2.386340 0.207152 1.036700 31.765100 0.099904 26.940001 -0.065377 2.410610 1.175110 -18.793900 4.336220 31.885599 -0.197848 -2.898070 -9.464380 -7.028530 8.327490 -34.148899 18.620501 -2.147550 55.896702 -2.091410 3.771480 -17.807699 14.903100 
5.091590 44.807777 119.630997 -1.142580 1.806640 24.540800 2.145000 14.380800 -1.909600 -1.609270 -21.579201 -2.803760 -4.984090 33.926399 2.442980 2.302680 19.542999 0.453382 -1.998780 -0.069785 1.998780 -88.103302 7.470010 -4.434710 -0.657008 -2.348330 -29.377800 -0.098204 12.227000 0.101846 1.998780 -0.069785 -1.998780 84.132301 -5.663240 -2.159550 0.206823 1.036580 31.745600 0.099785 27.076000 -0.065043 2.395360 0.953426 -17.622299 4.314410 32.491699 -0.182290 -2.841320 -9.790040 -6.888610 8.485770 -34.106400 18.638100 -2.124510 55.888199 -2.123990 3.989170 -18.051300 15.348400 
5.156060 44.822479 119.889999 -1.376950 2.041010 24.618999 2.185090 14.380300 -1.884680 -1.472190 -21.551201 -2.719240 -4.910380 33.639702 2.325750 2.322530 19.406200 0.403132 -1.998780 -0.069785 1.998780 -88.220901 7.511380 -4.110330 -0.677760 -2.339280 -30.022699 -0.098265 11.748000 0.102837 1.998780 -0.069785 -1.998780 84.013802 -5.575690 -1.905020 0.207644 1.036870 31.794399 0.099742 27.125000 -0.064924 2.438200 0.534736 -16.271099 4.317790 33.143902 -0.178289 -2.820600 -9.964540 -6.912380 8.682920 -34.103001 18.649599 -2.111700 55.927601 -2.128080 4.203890 -18.341999 15.659700 
5.217110 44.839581 120.127998 -1.542970 2.285150 24.765301 2.234510 14.330700 -1.882650 -1.375460 -21.522699 -2.666240 -4.721250 33.212200 2.103000 2.372260 19.201099 0.321431 -1.998780 -0.069785 1.998780 -88.294098 7.650520 -3.707040 -0.702777 -2.328010 -30.804501 -0.098339 11.065000 0.104251 1.998780 -0.069785 -1.998780 83.950203 -5.595360 -1.649860 0.209286 1.037460 31.892000 0.099767 27.096001 -0.064995 2.469410 0.152965 -14.806200 4.310490 33.569302 -0.181568 -2.794550 -10.092600 -7.062480 8.774110 -34.093498 18.594000 -2.110040 56.016300 -2.142070 4.351800 -18.694599 15.809000 
5.277310 44.855377 120.345001 -1.630860 2.539060 24.970501 2.283330 14.242200 -1.890240 -1.332410 -21.474001 -2.654880 -4.426340 32.691399 1.807920 2.451850 18.957001 0.208263 -1.998780 -0.069785 1.998780 -88.301003 7.926200 -3.246040 -0.731043 -2.314770 -31.693800 -0.098406 10.225000 0.105980 1.998780 -0.069785 -1.998780 83.923897 -5.653980 -1.404830 0.211746 1.038350 32.038502 0.099878 26.969000 -0.065305 2.413370 -0.124360 -13.307400 4.290600 33.700401 -0.166677 -2.831810 -10.276800 -7.324610 8.712800 -34.139500 18.438000 -2.086030 56.164501 -2.173350 4.427910 -19.040001 15.780100 
